<?xml version="1.0" encoding="utf-8"?>
<!-- Uploaded to: SVG Repo, www.svgrepo.com, Generator: SVG Repo Mixer Tools -->
<svg width="800px" height="800px" viewBox="0 0 1024 1024" class="icon"  version="1.1" xmlns="http://www.w3.org/2000/svg"><path d="M802.816 393.216c6.656 11.264 6.144 27.136 5.12 39.424-3.584 54.784-38.912 99.84-77.824 135.68-13.824 12.8-32.768 25.6-37.888 45.056-3.584 12.8-0.512 28.672 10.752 36.864 17.408 12.8 40.448-4.608 55.296 11.264 12.288 13.312 6.656 29.696-1.024 43.52-7.168 12.288-17.408 18.432-29.696 24.064-39.424 17.408-82.944 35.84-112.128 69.12-10.752 12.288-14.336 22.016-13.824 38.4 1.024 22.016-4.608 43.008-25.088 55.808-11.264 7.168-24.064 11.264-36.864 13.824 0.512-49.152 0.512-98.304 1.024-147.456 27.648-4.096 52.224-12.8 76.288-27.648 26.112-16.384 47.616-42.496 70.144-62.976 7.68-7.168-4.096-18.432-11.264-11.776-20.992 19.968-41.984 45.056-66.56 60.928-21.504 13.312-43.52 20.992-68.096 25.6 0-45.056 0-89.6-0.512-134.656 35.84-11.776 63.488-33.28 89.6-59.904C665.6 512 700.416 475.648 735.744 439.296c7.168-7.68-4.096-18.944-11.264-11.264C691.2 460.8 658.944 494.08 626.688 527.36c-26.112 26.624-51.712 50.688-86.528 63.488-0.512-73.728-1.536-147.968-3.072-221.696 0.512 0 0.512-0.512 1.024-0.512 47.616-41.472 112.128-87.04 122.368-154.112 1.536-10.24-14.336-14.848-15.872-4.096-9.216 59.392-64 100.864-108.032 138.24-1.024-51.2-2.048-102.4-3.584-153.6 0-10.24-16.384-10.24-16.384 0 2.048 68.608 3.584 137.216 4.608 205.824-51.2-28.672-91.136-74.24-112.64-129.536-3.584-9.728-19.456-5.632-15.872 4.096 24.064 61.952 69.12 113.152 128.512 143.872 1.024 67.072 2.048 134.144 2.048 201.216-36.352-10.24-64-37.376-89.6-64-31.744-33.792-62.976-68.096-94.72-101.888-7.168-7.68-18.432 3.584-11.264 11.264 33.792 36.352 67.072 73.728 101.888 109.568 26.624 27.648 56.32 52.736 93.696 61.952v142.848c-27.648 0-53.248-10.752-75.776-27.136-12.288-8.704-23.04-18.432-33.792-28.672-10.752-10.24-23.552-20.48-31.232-33.28-5.632-8.704-19.456-1.024-13.824 8.192 8.192 13.312 19.968 24.064 31.232 34.816 12.288 11.776 25.088 23.04 39.424 33.28 24.576 17.408 53.248 29.184 83.968 29.184 0 37.376-0.512 74.752-1.024 111.616-5.12 0-10.24 0-14.848-0.512-30.208-3.072-29.184-33.792-37.888-56.832-11.776-31.232-37.888-52.736-64-71.168-29.696-20.48-62.464-37.376-86.016-65.024-11.264-13.312-28.16-38.912-16.896-56.832 6.144-9.728 20.48-8.192 29.184-12.8 6.656-3.584 11.776-8.704 15.36-15.36 18.944-34.304-7.68-67.072-33.28-88.064-36.864-30.72-69.12-68.608-75.264-118.272-3.072-23.04 3.584-49.152 30.72-49.664 19.968 0 35.84 0.512 49.152-16.384 14.336-18.432 13.312-41.984 11.264-63.488-2.56-28.16-5.12-56.32-6.144-84.48-0.512-22.528-0.512-54.272 29.184-54.272 17.408 0 34.304 7.168 51.712 9.728 14.336 2.048 29.184 1.536 41.472-7.168 17.408-12.8 22.016-35.84 33.28-53.248 12.8-19.968 30.72-35.328 51.2-46.592 19.968 9.728 36.864 23.04 51.712 39.424 7.168 8.192 13.312 15.872 16.384 26.624 2.048 7.68 1.536 16.896 4.608 24.576 4.608 11.776 19.968 14.848 30.72 14.848 24.064-0.512 45.568-13.312 70.144-11.264 8.704 1.024 19.968 3.072 27.648 8.192 8.704 6.144 14.336 20.992 15.872 31.232 2.56 18.944 0.512 40.448-4.096 58.88-6.144 23.04-18.432 42.496-27.648 64-7.168 17.408-9.216 36.864 2.56 53.248 10.752 14.336 27.136 19.968 44.544 17.408 14.848-1.536 30.72-7.168 39.936 8.192z" fill="#7C5438" /><path d="M671.232 775.68c-16.384 10.24-47.616 27.136-53.248 47.616-2.56 8.192 0 17.92 0 26.112 0 8.704-2.048 16.896-5.632 24.576-12.8 29.696-42.496 44.544-73.216 48.64-0.512 26.112-0.512 51.712-1.024 77.824 0 10.24-16.384 10.24-16.384 0 0.512-25.6 0.512-50.688 1.024-76.288-5.632 0-11.776 0-16.896-1.024-48.128-5.12-40.448-58.368-63.488-89.6s-59.904-49.152-91.136-70.656c-27.648-18.944-58.88-44.544-66.048-79.36-3.584-15.36-1.024-34.304 13.312-43.52 9.728-6.656 23.04-5.12 31.744-12.8 7.68-7.68 8.704-20.992 6.656-30.72-4.608-24.064-29.184-38.912-46.592-53.76-17.92-15.36-33.28-33.28-45.056-54.272-17.408-31.232-34.816-80.896-11.776-113.664 12.8-18.432 30.72-15.872 50.688-16.384 38.912-1.024 31.232-50.688 28.672-76.8-2.56-29.184-5.632-58.368-5.12-87.552 0.512-17.92 4.608-36.864 19.968-47.616 13.824-9.216 30.72-7.68 46.08-4.608 17.92 3.584 41.472 14.336 58.88 5.12 12.288-6.144 16.896-21.504 22.528-32.768 4.608-10.24 10.752-19.968 17.408-28.672 14.336-18.432 32.256-32.768 53.248-43.52 2.048-1.024 3.584-1.024 5.12-0.512 1.024 0 2.048 0.512 3.072 0.512 20.992 10.24 39.936 23.552 55.808 40.448 14.336 15.36 23.04 28.672 26.624 49.664 1.536 9.728 4.096 15.36 15.36 15.36 11.776 0 24.576-5.12 35.84-7.68 20.992-4.608 42.496-5.632 62.976 2.56 17.408 7.168 26.624 23.04 30.72 40.96 9.216 39.424-4.608 83.968-22.528 118.784-6.656 13.312-15.872 27.648-13.824 43.008 2.048 14.848 14.336 25.088 29.696 25.088 19.968-0.512 40.448-9.728 56.32 8.192 13.824 16.384 13.824 43.52 11.264 63.488-3.072 25.088-11.776 49.152-24.576 71.168-12.8 21.504-29.184 40.96-47.104 58.368-12.8 12.8-54.272 38.4-43.008 60.928 6.656 13.824 23.04 6.656 34.816 6.656 7.68 0 14.848 1.536 20.992 6.656 16.384 12.8 21.504 32.768 14.848 51.712-7.168 22.016-20.48 36.864-41.472 46.08-21.504 10.24-44.032 19.456-65.536 32.256z m-55.808 23.552c29.696-33.28 72.704-51.2 112.128-69.12 12.288-5.632 22.528-11.776 29.696-24.064 7.68-13.824 13.312-30.72 1.024-43.52-14.848-15.872-37.888 1.024-55.296-11.264-11.264-8.192-14.336-24.064-10.752-36.864 5.12-19.456 24.064-32.256 37.888-45.056 38.912-35.84 73.728-80.896 77.824-135.68 1.024-12.288 1.536-28.672-5.12-39.424-9.216-15.36-25.088-9.728-39.936-8.192-17.408 2.048-33.792-3.072-44.544-17.408-11.776-15.872-9.728-35.84-2.56-53.248 9.216-21.504 21.504-41.472 27.648-64 4.608-18.432 6.656-39.936 4.096-58.88-1.536-10.24-6.656-25.088-15.872-31.232-7.68-5.12-18.432-7.168-27.648-8.192-24.576-2.56-46.592 10.752-70.144 11.264-10.752 0.512-26.112-3.072-30.72-14.848-2.56-7.68-2.048-16.384-4.608-24.576-3.072-10.752-9.216-18.432-16.384-26.624-14.848-16.384-32.256-29.696-51.712-39.424-20.48 11.264-38.4 26.624-51.2 46.592-11.264 17.408-15.872 40.448-33.28 53.248-12.288 8.704-27.136 9.728-41.472 7.168-17.408-2.56-34.304-10.24-51.712-9.728-29.696 0-29.696 31.744-29.184 54.272 1.024 28.16 3.072 56.32 6.144 84.48 2.048 22.016 3.072 45.568-11.264 63.488-13.312 16.896-29.184 15.872-49.152 16.384-27.648 0-33.792 26.112-30.72 49.664 6.144 49.664 38.4 88.064 75.264 118.272 25.088 20.992 51.712 53.76 33.28 88.064-3.584 6.656-8.704 11.776-15.36 15.36-9.216 4.608-23.552 3.584-29.184 12.8-11.264 17.92 5.632 43.52 16.896 56.832 23.552 27.648 56.832 45.056 86.016 65.024 26.624 18.432 52.224 39.936 64 71.168 8.704 22.528 7.68 53.76 37.888 56.832 5.12 0.512 10.24 0.512 14.848 0.512 0.512-37.376 0.512-74.752 1.024-111.616-30.208 0-58.88-11.776-83.968-29.184-14.336-9.728-27.136-21.504-39.424-33.28-11.264-10.752-23.552-20.992-31.232-34.816-5.632-9.216 8.704-16.896 13.824-8.192 7.68 12.8 20.48 23.04 31.232 33.28 10.752 10.24 22.016 19.968 33.792 28.672 22.528 15.872 48.128 26.624 75.776 27.136V638.464c-37.376-9.216-67.072-34.816-93.696-61.952-34.816-35.84-68.096-73.216-101.888-109.568-7.168-7.68 4.608-18.944 11.264-11.264 31.232 33.792 62.976 68.096 94.72 101.888 25.6 27.136 53.248 53.76 89.6 64-0.512-67.072-1.024-134.144-2.048-201.216-59.392-30.72-104.448-81.92-128.512-143.872-3.584-9.728 11.776-13.824 15.872-4.096 21.504 55.296 61.44 100.864 112.64 129.536-1.024-68.608-2.56-137.216-4.608-205.824-0.512-10.24 15.872-10.24 16.384 0 1.536 51.2 2.56 102.4 3.584 153.6 44.032-37.376 98.816-78.848 108.032-138.24 1.536-10.24 17.408-6.144 15.872 4.096-10.24 67.072-74.752 112.64-122.368 154.112-0.512 0-0.512 0.512-1.024 0.512 1.536 73.728 2.56 147.968 3.072 221.696 35.328-12.8 60.928-36.352 86.528-63.488l96.768-99.84c7.168-7.68 18.944 4.096 11.264 11.264C699.904 475.136 665.088 511.488 629.76 547.84c-26.112 26.624-53.76 48.64-89.6 59.904 0.512 45.056 0.512 90.112 0.512 134.656 24.576-4.096 46.592-11.776 68.096-25.6 24.576-15.36 45.568-40.96 66.56-60.928 7.68-7.168 18.944 4.096 11.264 11.776-22.016 20.992-44.032 47.104-70.144 62.976-24.064 14.848-48.64 23.552-76.288 27.648 0 49.152-0.512 98.304-1.024 147.456 12.8-2.048 25.6-6.656 36.864-13.824 20.48-12.8 25.6-33.28 25.088-55.808-0.512-15.36 3.072-24.576 14.336-36.864z" fill="#B59885" /></svg>