<?xml version="1.0" encoding="iso-8859-1"?>
<!-- Uploaded to: SVG Repo, www.svgrepo.com, Generator: SVG Repo Mixer Tools -->
<svg height="800px" width="800px" version="1.1" id="Capa_1" xmlns="http://www.w3.org/2000/svg" xmlns:xlink="http://www.w3.org/1999/xlink" 
	 viewBox="0 0 57.674 57.674" xml:space="preserve">
<path style="fill:#805333;" d="M33.317,39.442l-4.222,2.422l-2.436-4.292L22.337,40l2.436,4.292l-4.272,2.425l2.425,4.272
	l4.272-2.425l4.774,8.41c0.377,0.664,1.221,0.897,1.885,0.52l1.901-1.079c0.666-0.378,0.898-1.226,0.517-1.89l-4.805-8.385
	l4.272-2.425L33.317,39.442z"/>
<circle style="fill:#805333;" cx="24.337" cy="3" r="3"/>
<circle style="fill:#805333;" cx="33.337" cy="4" r="3"/>
<circle style="fill:#805333;" cx="42.337" cy="6" r="3"/>
<circle style="fill:#805333;" cx="47.337" cy="13" r="3"/>
<circle style="fill:#805333;" cx="44.337" cy="21" r="3"/>
<circle style="fill:#805333;" cx="37.337" cy="27" r="3"/>
<circle style="fill:#805333;" cx="30.337" cy="33" r="3"/>
<circle style="fill:#805333;" cx="16.337" cy="6" r="3"/>
<circle style="fill:#805333;" cx="11.337" cy="13" r="3"/>
<circle style="fill:#805333;" cx="10.337" cy="22" r="3"/>
<circle style="fill:#805333;" cx="12.337" cy="31" r="3"/>
<circle style="fill:#805333;" cx="16.337" cy="39" r="3"/>
</svg>